<svg width="192" height="192" viewBox="0 0 192 192" fill="none" xmlns="http://www.w3.org/2000/svg">
  <rect width="192" height="192" rx="48" fill="#155EEF"/>
  <path d="M96 42L144 61V94C144 124.4 124.52 150.88 96 160.32C67.48 150.88 48 124.4 48 94V61L96 42Z" fill="white" opacity="0.96"/>
  <path d="M76.4 100.8C91.2 99.52 109 90.2 122 71.4C124.72 93.2 116.08 119.4 89.6 124.64C80.48 126.44 71.8 124.2 65.2 119.44C73.52 117.92 82.08 113.48 88.48 106.8C83.92 108.24 79.44 108.84 75.2 108.32C74.32 105.72 73.92 103.2 74 100.8H76.4Z" fill="#15803D"/>
  <path d="M72 124.8C83 114.6 96.96 106.4 112.88 101.12" stroke="#155EEF" stroke-width="8.8" stroke-linecap="round"/>
</svg>
