<svg width="512" height="512" viewBox="0 0 512 512" fill="none" xmlns="http://www.w3.org/2000/svg">
  <rect width="512" height="512" rx="128" fill="#155EEF"/>
  <path d="M256 112L384 162.667V250.667C384 331.733 332.053 402.347 256 427.52C179.947 402.347 128 331.733 128 250.667V162.667L256 112Z" fill="white" opacity="0.96"/>
  <path d="M203.733 268.8C243.2 265.387 290.667 240.533 325.333 190.4C332.587 248.533 309.547 318.4 238.933 332.373C214.613 337.173 191.467 331.2 173.867 318.507C196.053 314.453 218.88 302.613 235.947 284.8C223.787 288.64 211.84 290.24 200.533 288.853C198.187 281.92 197.12 275.2 197.333 268.8H203.733Z" fill="#15803D"/>
  <path d="M192 332.8C221.333 305.6 258.56 283.733 301.013 269.653" stroke="#155EEF" stroke-width="23.467" stroke-linecap="round"/>
</svg>
