<svg width="512" height="512" viewBox="0 0 512 512" fill="none" xmlns="http://www.w3.org/2000/svg">
  <rect width="512" height="512" fill="#155EEF"/>
  <circle cx="256" cy="256" r="190" fill="#0A0E17" opacity="0.18"/>
  <path d="M256 118L382 167.875V254.5C382 334.3 330.866 403.807 256 428.588C181.134 403.807 130 334.3 130 254.5V167.875L256 118Z" fill="white" opacity="0.96"/>
  <path d="M204.55 271.1C243.4 267.74 290.125 243.275 324.25 193.925C331.39 251.15 308.71 319.925 239.2 333.68C215.26 338.405 192.475 332.525 175.15 320.03C196.99 316.04 219.46 304.385 236.26 286.85C224.29 290.63 212.53 292.205 201.4 290.84C199.09 284.015 198.04 277.4 198.25 271.1H204.55Z" fill="#15803D"/>
  <path d="M193 334.1C221.875 307.325 258.52 285.8 300.31 271.94" stroke="#155EEF" stroke-width="23.1" stroke-linecap="round"/>
</svg>
